<svg width="517" height="36" viewBox="0 0 517 36" fill="none" xmlns="http://www.w3.org/2000/svg">
    <path
        d="M20.436 35L23.452 21.792L25.376 9.884H26L27.872 21.792L30.888 35H45.24L51.376 0.159999H40.768L39.26 11.912L38.012 26.264H37.336L35.152 11.912L32.76 0.159999H18.772L16.224 12.432L14.352 26.264H13.676L12.48 12.432L10.816 0.159999H0L6.084 35H20.436ZM64.8115 35V19.92C64.8115 17.06 65.7995 16.124 69.0235 16.124C72.4555 16.124 73.1315 17.06 73.1315 19.92V35H82.9075V17.892C82.9075 12.38 80.3075 7.752 73.2355 7.752C69.6995 7.752 66.7355 9.312 65.2795 11.808H64.8115V0.159999H55.0875V35H64.8115ZM95.3806 35.52C100.373 35.52 102.713 33.44 103.857 31.776H104.325V35H113.477V18.984C113.477 11.444 109.369 7.752 101.101 7.752C93.0926 7.752 87.8926 11.808 87.8926 18.412V19.036H97.2006V18.204C97.2006 16.592 97.8766 16.072 100.737 16.072C103.597 16.072 104.169 16.644 104.169 18.308V19.244L95.6406 20.596C89.9726 21.532 87.2686 24.028 87.2686 28.188C87.2686 33.076 90.8046 35.52 95.3806 35.52ZM96.2126 27.304C96.2126 26.576 96.6286 26.212 97.6686 26.056L104.169 24.964C104.013 27.46 102.401 28.448 98.6046 28.448C96.7846 28.448 96.2126 28.24 96.2126 27.304ZM131.207 35.52C133.651 35.52 136.095 35.208 137.447 34.896V26.732H133.183C130.947 26.732 130.375 26.316 130.375 24.704V16.28H137.447V8.272H130.375V2.76H122.627L120.911 8.272H117.063V16.28H120.599V26.16C120.599 32.608 123.979 35.52 131.207 35.52ZM162.277 5.88V0.159999H152.553V5.88H162.277ZM162.329 35V8.272H152.553V35H162.329ZM179.91 35.52C187.762 35.52 191.922 31.932 191.922 26.888C191.922 22.572 189.894 20.232 183.914 18.984L177.934 17.736C176.218 17.372 175.958 17.008 175.958 16.332C175.958 15.552 176.27 15.084 178.61 15.084C181.106 15.084 181.782 15.552 181.782 17.164V17.632H190.934V16.644C190.934 10.768 185.734 7.752 178.87 7.752C170.966 7.752 166.962 11.392 166.962 16.332C166.962 21.532 169.978 23.612 175.282 24.6L180.378 25.536C182.614 25.952 182.874 26.212 182.874 27.044C182.874 28.032 182.614 28.292 179.91 28.292C176.634 28.292 176.166 27.928 176.166 26.472V25.796H167.066V25.952C167.066 32.036 171.07 35.52 179.91 35.52ZM216.531 35V23.872H218.923C222.199 23.872 222.875 24.756 224.331 27.772L227.763 35H239.151L235.511 27.096C234.159 24.132 232.755 21.896 229.219 20.96V20.492C235.095 19.816 237.227 16.384 237.227 10.872C237.227 3.904 233.067 0.159999 224.279 0.159999H206.755V35H216.531ZM216.531 8.948H223.915C226.671 8.948 227.451 9.676 227.451 12.224C227.451 14.98 226.671 15.76 223.915 15.76H216.531V8.948ZM270.742 35V26.212H252.386V21.896H269.962V13.16H252.386V8.948H270.742V0.159999H242.61V35H270.742ZM285.855 35V22.624H292.303L298.699 35H309.931L300.311 17.424L310.139 0.159999H299.063L292.199 13.108H285.855V0.159999H276.079V35H285.855ZM333.053 35V8.948H343.765V0.159999H312.565V8.948H323.277V35H333.053ZM356.741 35V24.236H345.093V35H356.741ZM382.022 35C390.55 35 394.45 31.412 394.45 25.328C394.45 20.648 391.59 17.06 385.714 16.852V16.176C390.498 15.76 392.838 13.108 392.838 8.74C392.838 2.812 388.938 0.159999 380.982 0.159999H362.47V35H382.022ZM372.246 8.948H380.254C382.282 8.948 383.062 9.312 383.062 11.184C383.062 12.952 382.49 13.42 380.462 13.42H372.246V8.948ZM372.246 21.012H381.658C383.634 21.012 384.518 21.324 384.518 23.664C384.518 25.952 383.53 26.212 381.658 26.212H372.246V21.012ZM414.786 35.52C425.55 35.52 430.49 30.008 430.49 21.532V0.159999H420.714V21.012C420.714 24.912 419.778 26.004 414.786 26.004C409.794 26.004 408.858 24.912 408.858 21.012V0.159999H399.082V21.532C399.082 30.008 404.022 35.52 414.786 35.52ZM446.192 35V0.159999H436.416V35H446.192ZM479.613 35V26.212H462.141V0.159999H452.365V35H479.613ZM498.73 35C510.17 35 516.462 28.604 516.462 17.58C516.462 6.556 510.17 0.159999 498.73 0.159999H483.702V35H498.73ZM498.21 8.948C504.346 8.948 505.906 10.248 505.906 17.58C505.906 24.912 504.346 26.212 498.21 26.212H493.478V8.948H498.21Z"
        fill="#B60029" />
</svg>