<svg width="1400" height="156" viewBox="0 0 1400 156" fill="none" xmlns="http://www.w3.org/2000/svg">
    <path
        d="M46.8743 129.526C70.2186 129.526 84.866 118.235 84.866 102.367V100.536H56.4866V100.841C56.4866 104.35 54.198 105.724 47.332 105.724C36.8041 105.724 34.2103 103.74 33.7526 95.3484H84.5609C85.0186 92.7546 85.7815 88.0247 85.7815 83.7525C85.7815 62.8494 73.1176 48.0494 47.7897 48.0494C21.699 48.0494 7.05155 63.6123 7.05155 89.5505C7.05155 114.573 21.3938 129.526 46.8743 129.526ZM46.264 70.6309C55.7238 70.6309 58.3176 74.7505 58.4701 79.7855H33.7526C34.2103 73.3773 37.4145 70.6309 46.264 70.6309ZM155.714 128L185.162 49.5752H153.731L138.778 99.468H136.795L121.842 49.5752H89.801L119.096 128H155.714ZM228.829 129.526C252.173 129.526 266.821 118.235 266.821 102.367V100.536H238.441V100.841C238.441 104.35 236.153 105.724 229.287 105.724C218.759 105.724 216.165 103.74 215.707 95.3484H266.515C266.973 92.7546 267.736 88.0247 267.736 83.7525C267.736 62.8494 255.072 48.0494 229.744 48.0494C203.654 48.0494 189.006 63.6123 189.006 89.5505C189.006 114.573 203.348 129.526 228.829 129.526ZM228.219 70.6309C237.678 70.6309 240.272 74.7505 240.425 79.7855H215.707C216.165 73.3773 219.369 70.6309 228.219 70.6309ZM309.52 128V83.2948C309.52 74.903 312.419 72.6144 321.878 72.6144C331.949 72.6144 333.932 75.3608 333.932 83.7525V128H362.617V77.802C362.617 61.6288 354.988 48.0494 334.695 48.0494C323.099 48.0494 313.334 52.6267 309.062 61.4762H307.689V49.5752H280.988V128H309.52ZM436.344 128V83.2948C436.344 74.903 439.09 72.6144 448.092 72.6144C457.399 72.6144 459.23 75.3608 459.23 83.7525V128H487.915V83.2948C487.915 74.903 490.661 72.6144 499.663 72.6144C508.971 72.6144 510.801 75.3608 510.801 83.7525V128H539.486V77.802C539.486 61.6288 531.857 48.0494 511.564 48.0494C500.121 48.0494 491.272 52.6267 485.931 61.4762H484.558C480.591 53.3896 472.81 48.0494 459.993 48.0494C449.16 48.0494 440.158 52.7793 435.886 61.4762H434.513V49.5752H407.812V128H436.344ZM593.657 129.526C619.595 129.526 634.548 114.115 634.548 88.7876C634.548 63.3072 619.595 48.0494 593.657 48.0494C567.719 48.0494 552.766 63.3072 552.766 88.7876C552.766 114.115 567.719 129.526 593.657 129.526ZM593.657 104.656C584.045 104.656 581.298 101.299 581.298 88.7876C581.298 76.2762 584.045 72.9195 593.657 72.9195C603.269 72.9195 606.016 76.2762 606.016 88.7876C606.016 101.299 603.269 104.656 593.657 104.656ZM676.409 128V78.4123C676.409 72.767 678.85 72.1567 683.58 72.1567C688.92 72.1567 689.988 73.835 689.988 79.633V87.4144H718.673V73.2247C718.673 57.8144 713.333 48.0494 698.227 48.0494C687.852 48.0494 680.376 53.8474 675.951 61.4762H674.578V49.5752H647.877V128H676.409ZM768.881 129.526C792.226 129.526 806.873 118.235 806.873 102.367V100.536H778.494V100.841C778.494 104.35 776.205 105.724 769.339 105.724C758.811 105.724 756.218 103.74 755.76 95.3484H806.568C807.026 92.7546 807.789 88.0247 807.789 83.7525C807.789 62.8494 795.125 48.0494 769.797 48.0494C743.706 48.0494 729.059 63.6123 729.059 89.5505C729.059 114.573 743.401 129.526 768.881 129.526ZM768.271 70.6309C777.731 70.6309 780.325 74.7505 780.477 79.7855H755.76C756.218 73.3773 759.422 70.6309 768.271 70.6309ZM880.576 128V83.2948C880.576 74.903 883.323 72.6144 892.325 72.6144C901.632 72.6144 903.463 75.3608 903.463 83.7525V128H932.148V83.2948C932.148 74.903 934.894 72.6144 943.896 72.6144C953.203 72.6144 955.034 75.3608 955.034 83.7525V128H983.719V77.802C983.719 61.6288 976.09 48.0494 955.797 48.0494C944.354 48.0494 935.504 52.6267 930.164 61.4762H928.791C924.824 53.3896 917.042 48.0494 904.226 48.0494C893.393 48.0494 884.391 52.7793 880.119 61.4762H878.746V49.5752H852.044V128H880.576ZM1036.82 129.526C1060.17 129.526 1074.81 118.235 1074.81 102.367V100.536H1046.43V100.841C1046.43 104.35 1044.15 105.724 1037.28 105.724C1026.75 105.724 1024.16 103.74 1023.7 95.3484H1074.51C1074.97 92.7546 1075.73 88.0247 1075.73 83.7525C1075.73 62.8494 1063.07 48.0494 1037.74 48.0494C1011.65 48.0494 996.999 63.6123 996.999 89.5505C996.999 114.573 1011.34 129.526 1036.82 129.526ZM1036.21 70.6309C1045.67 70.6309 1048.27 74.7505 1048.42 79.7855H1023.7C1024.16 73.3773 1027.36 70.6309 1036.21 70.6309ZM1117.51 128V83.2948C1117.51 74.903 1120.26 72.6144 1129.26 72.6144C1138.57 72.6144 1140.4 75.3608 1140.4 83.7525V128H1169.08V83.2948C1169.08 74.903 1171.83 72.6144 1180.83 72.6144C1190.14 72.6144 1191.97 75.3608 1191.97 83.7525V128H1220.65V77.802C1220.65 61.6288 1213.03 48.0494 1192.73 48.0494C1181.29 48.0494 1172.44 52.6267 1167.1 61.4762H1165.73C1161.76 53.3896 1153.98 48.0494 1141.16 48.0494C1130.33 48.0494 1121.33 52.7793 1117.05 61.4762H1115.68V49.5752H1088.98V128H1117.51ZM1273.76 129.526C1297.1 129.526 1311.75 118.235 1311.75 102.367V100.536H1283.37V100.841C1283.37 104.35 1281.08 105.724 1274.22 105.724C1263.69 105.724 1261.09 103.74 1260.64 95.3484H1311.44C1311.9 92.7546 1312.67 88.0247 1312.67 83.7525C1312.67 62.8494 1300 48.0494 1274.67 48.0494C1248.58 48.0494 1233.94 63.6123 1233.94 89.5505C1233.94 114.573 1248.28 129.526 1273.76 129.526ZM1273.15 70.6309C1282.61 70.6309 1285.2 74.7505 1285.35 79.7855H1260.64C1261.09 73.3773 1264.3 70.6309 1273.15 70.6309ZM1362.96 129.526C1386 129.526 1398.21 118.998 1398.21 104.198C1398.21 91.534 1392.26 84.668 1374.71 81.0061L1357.17 77.3443C1352.13 76.2762 1351.37 75.2082 1351.37 73.2247C1351.37 70.936 1352.28 69.5628 1359.15 69.5628C1366.47 69.5628 1368.46 70.936 1368.46 75.6659V77.0391H1395.31V74.1402C1395.31 56.8989 1380.05 48.0494 1359.91 48.0494C1336.72 48.0494 1324.97 58.7298 1324.97 73.2247C1324.97 88.4824 1333.82 94.5855 1349.39 97.4845L1364.34 100.231C1370.9 101.452 1371.66 102.214 1371.66 104.656C1371.66 107.555 1370.9 108.318 1362.96 108.318C1353.35 108.318 1351.98 107.249 1351.98 102.977V100.994H1325.28V101.452C1325.28 119.303 1337.03 129.526 1362.96 129.526Z"
        fill="#B60029" />
    <path
        d="M42.8743 126.526C66.2186 126.526 80.866 115.235 80.866 99.367V97.5361H52.4866V97.8412C52.4866 101.35 50.198 102.724 43.332 102.724C32.8041 102.724 30.2103 100.74 29.7526 92.3484H80.5609C81.0186 89.7546 81.7815 85.0247 81.7815 80.7525C81.7815 59.8494 69.1176 45.0494 43.7897 45.0494C17.699 45.0494 3.05155 60.6123 3.05155 86.5505C3.05155 111.573 17.3938 126.526 42.8743 126.526ZM42.264 67.6309C51.7238 67.6309 54.3176 71.7505 54.4701 76.7855H29.7526C30.2103 70.3773 33.4145 67.6309 42.264 67.6309ZM151.714 125L181.162 46.5752H149.731L134.778 96.468H132.795L117.842 46.5752H85.801L115.096 125H151.714ZM224.829 126.526C248.173 126.526 262.821 115.235 262.821 99.367V97.5361H234.441V97.8412C234.441 101.35 232.153 102.724 225.287 102.724C214.759 102.724 212.165 100.74 211.707 92.3484H262.515C262.973 89.7546 263.736 85.0247 263.736 80.7525C263.736 59.8494 251.072 45.0494 225.744 45.0494C199.654 45.0494 185.006 60.6123 185.006 86.5505C185.006 111.573 199.348 126.526 224.829 126.526ZM224.219 67.6309C233.678 67.6309 236.272 71.7505 236.425 76.7855H211.707C212.165 70.3773 215.369 67.6309 224.219 67.6309ZM305.52 125V80.2948C305.52 71.903 308.419 69.6144 317.878 69.6144C327.949 69.6144 329.932 72.3608 329.932 80.7525V125H358.617V74.802C358.617 58.6288 350.988 45.0494 330.695 45.0494C319.099 45.0494 309.334 49.6267 305.062 58.4762H303.689V46.5752H276.988V125H305.52ZM432.344 125V80.2948C432.344 71.903 435.09 69.6144 444.092 69.6144C453.399 69.6144 455.23 72.3608 455.23 80.7525V125H483.915V80.2948C483.915 71.903 486.661 69.6144 495.663 69.6144C504.971 69.6144 506.801 72.3608 506.801 80.7525V125H535.486V74.802C535.486 58.6288 527.857 45.0494 507.564 45.0494C496.121 45.0494 487.272 49.6267 481.931 58.4762H480.558C476.591 50.3896 468.81 45.0494 455.993 45.0494C445.16 45.0494 436.158 49.7793 431.886 58.4762H430.513V46.5752H403.812V125H432.344ZM589.657 126.526C615.595 126.526 630.548 111.115 630.548 85.7876C630.548 60.3072 615.595 45.0494 589.657 45.0494C563.719 45.0494 548.766 60.3072 548.766 85.7876C548.766 111.115 563.719 126.526 589.657 126.526ZM589.657 101.656C580.045 101.656 577.298 98.2989 577.298 85.7876C577.298 73.2762 580.045 69.9195 589.657 69.9195C599.269 69.9195 602.016 73.2762 602.016 85.7876C602.016 98.2989 599.269 101.656 589.657 101.656ZM672.409 125V75.4123C672.409 69.767 674.85 69.1567 679.58 69.1567C684.92 69.1567 685.988 70.835 685.988 76.633V84.4144H714.673V70.2247C714.673 54.8144 709.333 45.0494 694.227 45.0494C683.852 45.0494 676.376 50.8474 671.951 58.4762H670.578V46.5752H643.877V125H672.409ZM764.881 126.526C788.226 126.526 802.873 115.235 802.873 99.367V97.5361H774.494V97.8412C774.494 101.35 772.205 102.724 765.339 102.724C754.811 102.724 752.218 100.74 751.76 92.3484H802.568C803.026 89.7546 803.789 85.0247 803.789 80.7525C803.789 59.8494 791.125 45.0494 765.797 45.0494C739.706 45.0494 725.059 60.6123 725.059 86.5505C725.059 111.573 739.401 126.526 764.881 126.526ZM764.271 67.6309C773.731 67.6309 776.325 71.7505 776.477 76.7855H751.76C752.218 70.3773 755.422 67.6309 764.271 67.6309ZM876.576 125V80.2948C876.576 71.903 879.323 69.6144 888.325 69.6144C897.632 69.6144 899.463 72.3608 899.463 80.7525V125H928.148V80.2948C928.148 71.903 930.894 69.6144 939.896 69.6144C949.203 69.6144 951.034 72.3608 951.034 80.7525V125H979.719V74.802C979.719 58.6288 972.09 45.0494 951.797 45.0494C940.354 45.0494 931.504 49.6267 926.164 58.4762H924.791C920.824 50.3896 913.042 45.0494 900.226 45.0494C889.393 45.0494 880.391 49.7793 876.119 58.4762H874.746V46.5752H848.044V125H876.576ZM1032.82 126.526C1056.17 126.526 1070.81 115.235 1070.81 99.367V97.5361H1042.43V97.8412C1042.43 101.35 1040.15 102.724 1033.28 102.724C1022.75 102.724 1020.16 100.74 1019.7 92.3484H1070.51C1070.97 89.7546 1071.73 85.0247 1071.73 80.7525C1071.73 59.8494 1059.07 45.0494 1033.74 45.0494C1007.65 45.0494 992.999 60.6123 992.999 86.5505C992.999 111.573 1007.34 126.526 1032.82 126.526ZM1032.21 67.6309C1041.67 67.6309 1044.27 71.7505 1044.42 76.7855H1019.7C1020.16 70.3773 1023.36 67.6309 1032.21 67.6309ZM1113.51 125V80.2948C1113.51 71.903 1116.26 69.6144 1125.26 69.6144C1134.57 69.6144 1136.4 72.3608 1136.4 80.7525V125H1165.08V80.2948C1165.08 71.903 1167.83 69.6144 1176.83 69.6144C1186.14 69.6144 1187.97 72.3608 1187.97 80.7525V125H1216.65V74.802C1216.65 58.6288 1209.03 45.0494 1188.73 45.0494C1177.29 45.0494 1168.44 49.6267 1163.1 58.4762H1161.73C1157.76 50.3896 1149.98 45.0494 1137.16 45.0494C1126.33 45.0494 1117.33 49.7793 1113.05 58.4762H1111.68V46.5752H1084.98V125H1113.51ZM1269.76 126.526C1293.1 126.526 1307.75 115.235 1307.75 99.367V97.5361H1279.37V97.8412C1279.37 101.35 1277.08 102.724 1270.22 102.724C1259.69 102.724 1257.09 100.74 1256.64 92.3484H1307.44C1307.9 89.7546 1308.67 85.0247 1308.67 80.7525C1308.67 59.8494 1296 45.0494 1270.67 45.0494C1244.58 45.0494 1229.94 60.6123 1229.94 86.5505C1229.94 111.573 1244.28 126.526 1269.76 126.526ZM1269.15 67.6309C1278.61 67.6309 1281.2 71.7505 1281.35 76.7855H1256.64C1257.09 70.3773 1260.3 67.6309 1269.15 67.6309ZM1358.96 126.526C1382 126.526 1394.21 115.998 1394.21 101.198C1394.21 88.534 1388.26 81.668 1370.71 78.0061L1353.17 74.3443C1348.13 73.2762 1347.37 72.2082 1347.37 70.2247C1347.37 67.936 1348.28 66.5628 1355.15 66.5628C1362.47 66.5628 1364.46 67.936 1364.46 72.6659V74.0391H1391.31V71.1402C1391.31 53.8989 1376.05 45.0494 1355.91 45.0494C1332.72 45.0494 1320.97 55.7298 1320.97 70.2247C1320.97 85.4824 1329.82 91.5855 1345.39 94.4845L1360.34 97.2309C1366.9 98.4515 1367.66 99.2144 1367.66 101.656C1367.66 104.555 1366.9 105.318 1358.96 105.318C1349.35 105.318 1347.98 104.249 1347.98 99.9773V97.9938H1321.28V98.4515C1321.28 116.303 1333.03 126.526 1358.96 126.526Z"
        fill="#F2D521" />
</svg>