<svg width="360" height="102" viewBox="0 0 360 102" fill="none" xmlns="http://www.w3.org/2000/svg">
    <path
        d="M25.3 84V59.5L24.1 45.1H25.4L29.6 60.5L35 77H57.9L63.3 60.5L67.4 45.1H68.7L67.6 59.5V84H86.4V17H61L52.1 43.4L47.5 60.7H46.2L41.9 43.4L31.9 17H6.5V84H25.3ZM121.733 85C137.033 85 146.633 77.6 146.633 67.2V66H128.033V66.2C128.033 68.5 126.533 69.4 122.033 69.4C115.133 69.4 113.433 68.1 113.133 62.6H146.433C146.733 60.9 147.233 57.8 147.233 55C147.233 41.3 138.933 31.6 122.333 31.6C105.233 31.6 95.6328 41.8 95.6328 58.8C95.6328 75.2 105.033 85 121.733 85ZM121.333 46.4C127.533 46.4 129.233 49.1 129.333 52.4H113.133C113.433 48.2 115.533 46.4 121.333 46.4ZM174.618 84V54.7C174.618 49.2 176.418 47.7 182.318 47.7C188.418 47.7 189.618 49.5 189.618 55V84H208.418V54.7C208.418 49.2 210.218 47.7 216.118 47.7C222.218 47.7 223.418 49.5 223.418 55V84H242.218V51.1C242.218 40.5 237.218 31.6 223.918 31.6C216.418 31.6 210.618 34.6 207.118 40.4H206.218C203.618 35.1 198.518 31.6 190.118 31.6C183.018 31.6 177.118 34.7 174.318 40.4H173.418V32.6H155.918V84H174.618ZM277.022 85C292.322 85 301.922 77.6 301.922 67.2V66H283.322V66.2C283.322 68.5 281.822 69.4 277.322 69.4C270.422 69.4 268.722 68.1 268.422 62.6H301.722C302.022 60.9 302.522 57.8 302.522 55C302.522 41.3 294.222 31.6 277.622 31.6C260.522 31.6 250.922 41.8 250.922 58.8C250.922 75.2 260.322 85 277.022 85ZM276.622 46.4C282.822 46.4 284.522 49.1 284.622 52.4H268.422C268.722 48.2 270.822 46.4 276.622 46.4ZM335.488 85C350.588 85 358.588 78.1 358.588 68.4C358.588 60.1 354.688 55.6 343.188 53.2L331.688 50.8C328.388 50.1 327.888 49.4 327.888 48.1C327.888 46.6 328.488 45.7 332.988 45.7C337.788 45.7 339.088 46.6 339.088 49.7V50.6H356.688V48.7C356.688 37.4 346.688 31.6 333.488 31.6C318.288 31.6 310.588 38.6 310.588 48.1C310.588 58.1 316.388 62.1 326.588 64L336.388 65.8C340.688 66.6 341.188 67.1 341.188 68.7C341.188 70.6 340.688 71.1 335.488 71.1C329.188 71.1 328.288 70.4 328.288 67.6V66.3H310.788V66.6C310.788 78.3 318.488 85 335.488 85Z"
        fill="#B60029" />
    <path
        d="M22.3 82V57.5L21.1 43.1H22.4L26.6 58.5L32 75H54.9L60.3 58.5L64.4 43.1H65.7L64.6 57.5V82H83.4V15H58L49.1 41.4L44.5 58.7H43.2L38.9 41.4L28.9 15H3.5V82H22.3ZM118.733 83C134.033 83 143.633 75.6 143.633 65.2V64H125.033V64.2C125.033 66.5 123.533 67.4 119.033 67.4C112.133 67.4 110.433 66.1 110.133 60.6H143.433C143.733 58.9 144.233 55.8 144.233 53C144.233 39.3 135.933 29.6 119.333 29.6C102.233 29.6 92.6328 39.8 92.6328 56.8C92.6328 73.2 102.033 83 118.733 83ZM118.333 44.4C124.533 44.4 126.233 47.1 126.333 50.4H110.133C110.433 46.2 112.533 44.4 118.333 44.4ZM171.618 82V52.7C171.618 47.2 173.418 45.7 179.318 45.7C185.418 45.7 186.618 47.5 186.618 53V82H205.418V52.7C205.418 47.2 207.218 45.7 213.118 45.7C219.218 45.7 220.418 47.5 220.418 53V82H239.218V49.1C239.218 38.5 234.218 29.6 220.918 29.6C213.418 29.6 207.618 32.6 204.118 38.4H203.218C200.618 33.1 195.518 29.6 187.118 29.6C180.018 29.6 174.118 32.7 171.318 38.4H170.418V30.6H152.918V82H171.618ZM274.022 83C289.322 83 298.922 75.6 298.922 65.2V64H280.322V64.2C280.322 66.5 278.822 67.4 274.322 67.4C267.422 67.4 265.722 66.1 265.422 60.6H298.722C299.022 58.9 299.522 55.8 299.522 53C299.522 39.3 291.222 29.6 274.622 29.6C257.522 29.6 247.922 39.8 247.922 56.8C247.922 73.2 257.322 83 274.022 83ZM273.622 44.4C279.822 44.4 281.522 47.1 281.622 50.4H265.422C265.722 46.2 267.822 44.4 273.622 44.4ZM332.488 83C347.588 83 355.588 76.1 355.588 66.4C355.588 58.1 351.688 53.6 340.188 51.2L328.688 48.8C325.388 48.1 324.888 47.4 324.888 46.1C324.888 44.6 325.488 43.7 329.988 43.7C334.788 43.7 336.088 44.6 336.088 47.7V48.6H353.688V46.7C353.688 35.4 343.688 29.6 330.488 29.6C315.288 29.6 307.588 36.6 307.588 46.1C307.588 56.1 313.388 60.1 323.588 62L333.388 63.8C337.688 64.6 338.188 65.1 338.188 66.7C338.188 68.6 337.688 69.1 332.488 69.1C326.188 69.1 325.288 68.4 325.288 65.6V64.3H307.788V64.6C307.788 76.3 315.488 83 332.488 83Z"
        fill="#F2D521" />
</svg>