<svg width="964" height="151" viewBox="0 0 964 151" fill="none" xmlns="http://www.w3.org/2000/svg">
    <path
        d="M34.5546 124.506V81.3988C34.5546 73.3071 37.2028 71.1002 45.8831 71.1002C54.8576 71.1002 56.623 73.7484 56.623 81.8402V124.506H84.2821V81.3988C84.2821 73.3071 86.9304 71.1002 95.6106 71.1002C104.585 71.1002 106.351 73.7484 106.351 81.8402V124.506H134.01V76.1024C134.01 60.5074 126.654 47.4134 107.086 47.4134C96.052 47.4134 87.5189 51.8271 82.3696 60.3602H81.0454C77.2202 52.5627 69.717 47.4134 57.3586 47.4134C46.9129 47.4134 38.2327 51.9742 34.1132 60.3602H32.7891V48.8847H7.0426V124.506H34.5546ZM186.244 125.977C211.255 125.977 225.673 111.118 225.673 86.6953C225.673 62.1257 211.255 47.4134 186.244 47.4134C161.233 47.4134 146.815 62.1257 146.815 86.6953C146.815 111.118 161.233 125.977 186.244 125.977ZM186.244 101.996C176.975 101.996 174.327 98.7593 174.327 86.6953C174.327 74.6312 176.975 71.3945 186.244 71.3945C195.513 71.3945 198.161 74.6312 198.161 86.6953C198.161 98.7593 195.513 101.996 186.244 101.996ZM266.038 124.506V76.6909C266.038 71.2473 268.392 70.6589 272.952 70.6589C278.102 70.6589 279.132 72.2772 279.132 77.8679V85.3712H306.791V71.6887C306.791 56.8293 301.641 47.4134 287.076 47.4134C277.072 47.4134 269.863 53.0041 265.596 60.3602H264.272V48.8847H238.526V124.506H266.038ZM355.204 125.977C377.714 125.977 391.838 115.09 391.838 99.7892V98.0237H364.473V98.318C364.473 101.702 362.266 103.026 355.646 103.026C345.494 103.026 342.993 101.113 342.552 93.0215H391.544C391.985 90.5205 392.721 85.9596 392.721 81.8402C392.721 61.6844 380.51 47.4134 356.087 47.4134C330.929 47.4134 316.805 62.42 316.805 87.4309C316.805 111.559 330.635 125.977 355.204 125.977ZM354.616 69.1876C363.738 69.1876 366.239 73.1599 366.386 78.015H342.552C342.993 71.8358 346.083 69.1876 354.616 69.1876ZM462.907 124.506V81.3988C462.907 73.3071 465.555 71.1002 474.235 71.1002C483.209 71.1002 484.975 73.7484 484.975 81.8402V124.506H512.634V81.3988C512.634 73.3071 515.282 71.1002 523.963 71.1002C532.937 71.1002 534.703 73.7484 534.703 81.8402V124.506H562.362V76.1024C562.362 60.5074 555.005 47.4134 535.438 47.4134C524.404 47.4134 515.871 51.8271 510.721 60.3602H509.397C505.572 52.5627 498.069 47.4134 485.711 47.4134C475.265 47.4134 466.585 51.9742 462.465 60.3602H461.141V48.8847H435.395V124.506H462.907ZM613.566 125.977C636.076 125.977 650.2 115.09 650.2 99.7892V98.0237H622.835V98.318C622.835 101.702 620.628 103.026 614.008 103.026C603.856 103.026 601.355 101.113 600.914 93.0215H649.906C650.347 90.5205 651.083 85.9596 651.083 81.8402C651.083 61.6844 638.871 47.4134 614.449 47.4134C589.291 47.4134 575.167 62.42 575.167 87.4309C575.167 111.559 588.997 125.977 613.566 125.977ZM612.978 69.1876C622.099 69.1876 624.6 73.1599 624.748 78.015H600.914C601.355 71.8358 604.445 69.1876 612.978 69.1876ZM691.372 124.506V81.3988C691.372 73.3071 694.021 71.1002 702.701 71.1002C711.675 71.1002 713.441 73.7484 713.441 81.8402V124.506H741.1V81.3988C741.1 73.3071 743.748 71.1002 752.428 71.1002C761.403 71.1002 763.168 73.7484 763.168 81.8402V124.506H790.828V76.1024C790.828 60.5074 783.471 47.4134 763.904 47.4134C752.87 47.4134 744.337 51.8271 739.187 60.3602H737.863C734.038 52.5627 726.535 47.4134 714.176 47.4134C703.731 47.4134 695.05 51.9742 690.931 60.3602H689.607V48.8847H663.86V124.506H691.372ZM842.032 125.977C864.542 125.977 878.666 115.09 878.666 99.7892V98.0237H851.301V98.318C851.301 101.702 849.094 103.026 842.473 103.026C832.322 103.026 829.821 101.113 829.379 93.0215H878.371C878.813 90.5205 879.548 85.9596 879.548 81.8402C879.548 61.6844 867.337 47.4134 842.915 47.4134C817.757 47.4134 803.633 62.42 803.633 87.4309C803.633 111.559 817.463 125.977 842.032 125.977ZM841.444 69.1876C850.565 69.1876 853.066 73.1599 853.213 78.015H829.379C829.821 71.8358 832.91 69.1876 841.444 69.1876ZM928.05 125.977C950.265 125.977 962.035 115.826 962.035 101.555C962.035 89.3435 956.297 82.7229 939.378 79.192L922.459 75.661C917.604 74.6312 916.868 73.6013 916.868 71.6887C916.868 69.4819 917.751 68.1578 924.371 68.1578C931.433 68.1578 933.346 69.4819 933.346 74.0427V75.3668H959.24V72.5715C959.24 55.9466 944.527 47.4134 925.107 47.4134C902.744 47.4134 891.416 57.712 891.416 71.6887C891.416 86.401 899.949 92.2859 914.956 95.0813L929.374 97.7295C935.7 98.9065 936.436 99.6421 936.436 101.996C936.436 104.791 935.7 105.527 928.05 105.527C918.781 105.527 917.457 104.497 917.457 100.378V98.4651H891.71V98.9065C891.71 116.12 903.039 125.977 928.05 125.977Z"
        fill="#B60029" />
    <path
        d="M31.9257 121V77.893C31.9257 69.8012 34.5739 67.5944 43.2541 67.5944C52.2287 67.5944 53.9941 70.2426 53.9941 78.3343V121H81.6532V77.893C81.6532 69.8012 84.3015 67.5944 92.9817 67.5944C101.956 67.5944 103.722 70.2426 103.722 78.3343V121H131.381V72.5965C131.381 57.0015 124.025 43.9076 104.457 43.9076C93.4231 43.9076 84.8899 48.3213 79.7406 56.8544H78.4165C74.5913 49.0569 67.0881 43.9076 54.7297 43.9076C44.284 43.9076 35.6038 48.4684 31.4843 56.8544H30.1602V45.3788H4.41369V121H31.9257ZM183.615 122.471C208.626 122.471 223.044 107.612 223.044 83.1894C223.044 58.6199 208.626 43.9076 183.615 43.9076C158.604 43.9076 144.186 58.6199 144.186 83.1894C144.186 107.612 158.604 122.471 183.615 122.471ZM183.615 98.4902C174.346 98.4902 171.698 95.2535 171.698 83.1894C171.698 71.1253 174.346 67.8886 183.615 67.8886C192.884 67.8886 195.532 71.1253 195.532 83.1894C195.532 95.2535 192.884 98.4902 183.615 98.4902ZM263.409 121V73.185C263.409 67.7415 265.763 67.153 270.323 67.153C275.473 67.153 276.503 68.7713 276.503 74.362V81.8653H304.162V68.1829C304.162 53.3234 299.012 43.9076 284.447 43.9076C274.443 43.9076 267.234 49.4982 262.967 56.8544H261.643V45.3788H235.897V121H263.409ZM352.576 122.471C375.085 122.471 389.209 111.584 389.209 96.2833V94.5179H361.844V94.8121C361.844 98.1959 359.637 99.52 353.017 99.52C342.865 99.52 340.364 97.6074 339.923 89.5157H388.915C389.356 87.0146 390.092 82.4538 390.092 78.3343C390.092 58.1785 377.881 43.9076 353.458 43.9076C328.3 43.9076 314.176 58.9141 314.176 83.925C314.176 108.053 328.006 122.471 352.576 122.471ZM351.987 65.6818C361.109 65.6818 363.61 69.6541 363.757 74.5091H339.923C340.364 68.33 343.454 65.6818 351.987 65.6818ZM460.278 121V77.893C460.278 69.8012 462.926 67.5944 471.606 67.5944C480.581 67.5944 482.346 70.2426 482.346 78.3343V121H510.005V77.893C510.005 69.8012 512.653 67.5944 521.334 67.5944C530.308 67.5944 532.074 70.2426 532.074 78.3343V121H559.733V72.5965C559.733 57.0015 552.377 43.9076 532.809 43.9076C521.775 43.9076 513.242 48.3213 508.093 56.8544H506.768C502.943 49.0569 495.44 43.9076 483.082 43.9076C472.636 43.9076 463.956 48.4684 459.836 56.8544H458.512V45.3788H432.766V121H460.278ZM610.937 122.471C633.447 122.471 647.571 111.584 647.571 96.2833V94.5179H620.206V94.8121C620.206 98.1959 617.999 99.52 611.379 99.52C601.227 99.52 598.726 97.6074 598.285 89.5157H647.277C647.718 87.0146 648.454 82.4538 648.454 78.3343C648.454 58.1785 636.242 43.9076 611.82 43.9076C586.662 43.9076 572.538 58.9141 572.538 83.925C572.538 108.053 586.368 122.471 610.937 122.471ZM610.349 65.6818C619.47 65.6818 621.971 69.6541 622.119 74.5091H598.285C598.726 68.33 601.816 65.6818 610.349 65.6818ZM688.743 121V77.893C688.743 69.8012 691.392 67.5944 700.072 67.5944C709.046 67.5944 710.812 70.2426 710.812 78.3343V121H738.471V77.893C738.471 69.8012 741.119 67.5944 749.8 67.5944C758.774 67.5944 760.539 70.2426 760.539 78.3343V121H788.199V72.5965C788.199 57.0015 780.842 43.9076 761.275 43.9076C750.241 43.9076 741.708 48.3213 736.558 56.8544H735.234C731.409 49.0569 723.906 43.9076 711.548 43.9076C701.102 43.9076 692.422 48.4684 688.302 56.8544H686.978V45.3788H661.231V121H688.743ZM839.403 122.471C861.913 122.471 876.037 111.584 876.037 96.2833V94.5179H848.672V94.8121C848.672 98.1959 846.465 99.52 839.845 99.52C829.693 99.52 827.192 97.6074 826.751 89.5157H875.743C876.184 87.0146 876.919 82.4538 876.919 78.3343C876.919 58.1785 864.708 43.9076 840.286 43.9076C815.128 43.9076 801.004 58.9141 801.004 83.925C801.004 108.053 814.834 122.471 839.403 122.471ZM838.815 65.6818C847.936 65.6818 850.437 69.6541 850.584 74.5091H826.751C827.192 68.33 830.282 65.6818 838.815 65.6818ZM925.421 122.471C947.636 122.471 959.406 112.32 959.406 98.0488C959.406 85.8376 953.668 79.2171 936.749 75.6861L919.83 72.1552C914.975 71.1253 914.239 70.0955 914.239 68.1829C914.239 65.976 915.122 64.6519 921.743 64.6519C928.804 64.6519 930.717 65.976 930.717 70.5368V71.8609H956.611V69.0656C956.611 52.4407 941.898 43.9076 922.478 43.9076C900.115 43.9076 888.787 54.2062 888.787 68.1829C888.787 82.8952 897.32 88.7801 912.327 91.5754L926.745 94.2236C933.071 95.4006 933.807 96.1362 933.807 98.4902C933.807 101.286 933.071 102.021 925.421 102.021C916.152 102.021 914.828 100.991 914.828 96.8718V94.9592H889.081V95.4006C889.081 112.614 900.41 122.471 925.421 122.471Z"
        fill="#F2D521" />
</svg>