<svg width="497" height="402" viewBox="0 0 497 402" fill="none" xmlns="http://www.w3.org/2000/svg">
    <path
        d="M479 359.544L479 261.505L453.159 147.523C445.491 126.952 427.474 96.4912 409.521 68.5818C385.233 30.8218 333.499 24.5259 299.112 53.3922V53.3922C286.032 64.372 277.686 79.9153 275.921 96.9012C271.397 140.415 263.007 225.915 263.007 261.505C263.007 307.37 268.154 354.333 264.13 400C264.13 400 265.253 334.243 265.253 296.776C265.253 250.479 250.96 113.5 233.512 70.4987C233.512 70.4987 207.953 17.8838 155.989 28.6388C103.88 39.424 26.8973 126.34 20.4157 176.247C14.2472 223.743 20.4157 325.096 20.4157 373.309"
        stroke="#F2D521" stroke-width="34.8475" stroke-linecap="round" />
    <path
        d="M63.596 243V231.872H65.988C69.264 231.872 69.94 232.756 71.396 235.772L74.828 243H86.216L82.576 235.096C81.224 232.132 79.82 229.896 76.284 228.96V228.492C82.16 227.816 84.292 224.384 84.292 218.872C84.292 211.904 80.132 208.16 71.344 208.16H53.82V243H63.596ZM63.596 216.948H70.98C73.736 216.948 74.516 217.676 74.516 220.224C74.516 222.98 73.736 223.76 70.98 223.76H63.596V216.948ZM117.808 243V234.212H99.4516V229.896H117.028V221.16H99.4516V216.948H117.808V208.16H89.6756V243H117.808ZM132.921 243V230.624H139.369L145.765 243H156.997L147.377 225.424L157.205 208.16H146.129L139.265 221.108H132.921V208.16H123.145V243H132.921ZM180.118 243V216.948H190.83V208.16H159.63V216.948H170.342V243H180.118ZM215.452 243V231.872H217.844C221.12 231.872 221.796 232.756 223.252 235.772L226.684 243H238.072L234.432 235.096C233.08 232.132 231.676 229.896 228.14 228.96V228.492C234.016 227.816 236.148 224.384 236.148 218.872C236.148 211.904 231.988 208.16 223.2 208.16H205.676V243H215.452ZM215.452 216.948H222.836C225.592 216.948 226.372 217.676 226.372 220.224C226.372 222.98 225.592 223.76 222.836 223.76H215.452V216.948ZM253.926 243.52C262.766 243.52 267.862 238.268 267.862 229.636C267.862 220.952 262.766 215.752 253.926 215.752C245.086 215.752 239.99 220.952 239.99 229.636C239.99 238.268 245.086 243.52 253.926 243.52ZM253.926 235.044C250.65 235.044 249.714 233.9 249.714 229.636C249.714 225.372 250.65 224.228 253.926 224.228C257.202 224.228 258.138 225.372 258.138 229.636C258.138 233.9 257.202 235.044 253.926 235.044ZM279.94 243.52C284.932 243.52 287.272 241.44 288.416 239.776H288.884V243H298.036V226.984C298.036 219.444 293.928 215.752 285.66 215.752C277.652 215.752 272.452 219.808 272.452 226.412V227.036H281.76V226.204C281.76 224.592 282.436 224.072 285.296 224.072C288.156 224.072 288.728 224.644 288.728 226.308V227.244L280.2 228.596C274.532 229.532 271.828 232.028 271.828 236.188C271.828 241.076 275.364 243.52 279.94 243.52ZM280.772 235.304C280.772 234.576 281.188 234.212 282.228 234.056L288.728 232.964C288.572 235.46 286.96 236.448 283.164 236.448C281.344 236.448 280.772 236.24 280.772 235.304ZM313.117 243.52C317.433 243.52 320.241 241.856 321.697 239.36H322.009V243H331.109V208.16H321.385V219.808H320.917C319.773 217.364 317.173 215.752 313.325 215.752C306.253 215.752 302.561 221.212 302.561 229.636C302.561 238.06 306.357 243.52 313.117 243.52ZM312.285 229.636C312.285 226.048 312.753 224.228 316.861 224.228C319.929 224.228 321.385 225.008 321.385 228.648V230.572C321.385 234.264 319.929 234.992 316.861 234.992C312.805 234.992 312.285 233.224 312.285 229.636ZM346.274 243V227.764C346.274 224.904 347.21 224.124 350.278 224.124C353.45 224.124 354.074 225.06 354.074 227.92V243H363.85V227.764C363.85 224.904 364.786 224.124 367.854 224.124C371.026 224.124 371.65 225.06 371.65 227.92V243H381.426V225.892C381.426 220.38 378.826 215.752 371.91 215.752C368.01 215.752 364.994 217.312 363.174 220.328H362.706C361.354 217.572 358.702 215.752 354.334 215.752C350.642 215.752 347.574 217.364 346.118 220.328H345.65V216.272H336.55V243H346.274ZM393.905 243.52C398.897 243.52 401.237 241.44 402.381 239.776H402.849V243H412.001V226.984C412.001 219.444 407.893 215.752 399.625 215.752C391.617 215.752 386.417 219.808 386.417 226.412V227.036H395.725V226.204C395.725 224.592 396.401 224.072 399.261 224.072C402.121 224.072 402.693 224.644 402.693 226.308V227.244L394.165 228.596C388.497 229.532 385.793 232.028 385.793 236.188C385.793 241.076 389.329 243.52 393.905 243.52ZM394.737 235.304C394.737 234.576 395.153 234.212 396.193 234.056L402.693 232.964C402.537 235.46 400.925 236.448 397.129 236.448C395.309 236.448 394.737 236.24 394.737 235.304ZM426.973 251.32V239.464H427.441C428.585 241.908 431.185 243.52 435.033 243.52C442.625 243.52 445.797 238.06 445.797 229.636C445.797 221.212 442.521 215.752 434.929 215.752C430.925 215.752 428.117 217.416 426.661 219.912H426.349V216.272H417.249V251.32H426.973ZM426.973 230.624V228.7C426.973 225.008 428.429 224.28 431.497 224.28C435.553 224.28 436.073 226.048 436.073 229.636C436.073 233.224 435.605 235.044 431.497 235.044C428.429 235.044 426.973 234.264 426.973 230.624Z"
        fill="#B60029" />
</svg>