<svg width="419" height="303" viewBox="0 0 419 303" fill="none" xmlns="http://www.w3.org/2000/svg">
    <path
        d="M96.5457 37.7184L30.2801 48.9881C24.7504 49.9285 20.7051 54.7199 20.7051 60.329V111.949C20.7051 116.004 22.8402 119.76 26.3249 121.834L62.9129 143.612C66.6563 145.841 71.3374 145.763 75.005 143.412L127.909 109.499C132.733 106.407 134.546 100.237 132.162 95.0272L108.935 44.2724C106.766 39.5337 101.683 36.8447 96.5457 37.7184Z"
        fill="#F2D521" />
    <path
        d="M244.03 85.9762L236.823 42.2883C236.199 38.506 237.501 34.6614 240.293 32.0354L271.041 3.12305C273.175 1.11692 275.993 0 278.922 0H326.9C330.411 0 333.729 1.60276 335.911 4.35236L358.723 33.0956C360.337 35.1297 361.216 37.6502 361.216 40.247V84.6286C361.216 89.1367 358.583 93.2292 354.48 95.0977L307.89 116.317C304.861 117.697 301.383 117.697 298.354 116.317L250.612 94.5731C247.122 92.9837 244.654 89.7598 244.03 85.9762Z"
        fill="#F2D521" />
    <path
        d="M245.001 249.23H125.478C123.747 249.23 122.056 248.717 120.617 247.755L63.1769 209.334L25.5474 171.641C20.7954 166.881 12.673 169.046 10.9207 175.54L1.22601 211.468C0.460599 214.304 1.17122 217.335 3.11752 219.536L55.2787 278.518C56.2901 279.662 57.5834 280.521 59.0299 281.009L121.463 302.096C122.364 302.4 123.309 302.556 124.26 302.556H216.157C216.584 302.556 217.011 302.524 217.434 302.462L292.051 291.439C293.158 291.275 294.224 290.901 295.19 290.335L364.441 249.798C365.085 249.421 365.678 248.963 366.206 248.435L414.613 200.028C417.11 197.532 417.859 193.778 416.513 190.513L405.83 164.616C404.866 162.279 402.937 160.473 400.541 159.666L368.359 148.818C366.452 148.175 364.382 148.21 362.498 148.917L333.084 159.947C331.367 160.591 329.896 161.758 328.879 163.283L294.601 214.701C294.023 215.567 293.296 216.323 292.453 216.934L250.127 247.57C248.635 248.649 246.842 249.23 245.001 249.23Z"
        fill="#F2D521" />
</svg>