<svg width="291" height="37" viewBox="0 0 291 37" fill="none" xmlns="http://www.w3.org/2000/svg">
    <path
        d="M10.596 35.5557V24.4277H12.988C16.264 24.4277 16.94 25.3117 18.396 28.3277L21.828 35.5557H33.216L29.576 27.6517C28.224 24.6877 26.82 22.4517 23.284 21.5157V21.0477C29.16 20.3717 31.292 16.9397 31.292 11.4277C31.292 4.45966 27.132 0.715663 18.344 0.715663H0.82V35.5557H10.596ZM10.596 9.50366H17.98C20.736 9.50366 21.516 10.2317 21.516 12.7797C21.516 15.5357 20.736 16.3157 17.98 16.3157H10.596V9.50366ZM64.8076 35.5557V26.7677H46.4516V22.4517H64.0276V13.7157H46.4516V9.50366H64.8076V0.715663H36.6756V35.5557H64.8076ZM79.9205 35.5557V23.1797H86.3685L92.7645 35.5557H103.997L94.3765 17.9797L104.205 0.715663H93.1285L86.2645 13.6637H79.9205V0.715663H70.1445V35.5557H79.9205ZM127.118 35.5557V9.50366H137.83V0.715663H106.63V9.50366H117.342V35.5557H127.118ZM171.864 35.5557V9.50366H182.576V0.715663H151.376V9.50366H162.088V35.5557H171.864ZM197.464 36.0757C205.42 36.0757 210.412 32.2277 210.412 26.8197V26.1957H200.74V26.2997C200.74 27.4957 199.96 27.9637 197.62 27.9637C194.032 27.9637 193.148 27.2877 192.992 24.4277H210.308C210.464 23.5437 210.724 21.9317 210.724 20.4757C210.724 13.3517 206.408 8.30766 197.776 8.30766C188.884 8.30766 183.892 13.6117 183.892 22.4517C183.892 30.9797 188.78 36.0757 197.464 36.0757ZM197.256 16.0037C200.48 16.0037 201.364 17.4077 201.416 19.1237H192.992C193.148 16.9397 194.24 16.0037 197.256 16.0037ZM222.776 36.0757C227.768 36.0757 230.108 33.9957 231.252 32.3317H231.72V35.5557H240.872V19.5397C240.872 11.9997 236.764 8.30766 228.496 8.30766C220.488 8.30766 215.288 12.3637 215.288 18.9677V19.5917H224.596V18.7597C224.596 17.1477 225.272 16.6277 228.132 16.6277C230.992 16.6277 231.564 17.1997 231.564 18.8637V19.7997L223.036 21.1517C217.368 22.0877 214.664 24.5837 214.664 28.7437C214.664 33.6317 218.2 36.0757 222.776 36.0757ZM223.608 27.8597C223.608 27.1317 224.024 26.7677 225.064 26.6117L231.564 25.5197C231.408 28.0157 229.796 29.0037 226 29.0037C224.18 29.0037 223.608 28.7957 223.608 27.8597ZM255.844 35.5557V20.3197C255.844 17.4597 256.78 16.6797 259.848 16.6797C263.02 16.6797 263.644 17.6157 263.644 20.4757V35.5557H273.42V20.3197C273.42 17.4597 274.356 16.6797 277.424 16.6797C280.596 16.6797 281.22 17.6157 281.22 20.4757V35.5557H290.996V18.4477C290.996 12.9357 288.396 8.30766 281.48 8.30766C277.58 8.30766 274.564 9.86766 272.744 12.8837H272.276C270.924 10.1277 268.272 8.30766 263.904 8.30766C260.212 8.30766 257.144 9.91966 255.688 12.8837H255.22V8.82766H246.12V35.5557H255.844Z"
        fill="#B60029" />
</svg>